<?xml version="1.0" encoding="utf-8"?>
<!-- Generator: Adobe Illustrator 24.0.1, SVG Export Plug-In . SVG Version: 6.00 Build 0)  -->
<svg version="1.1" id="Слой_1" xmlns="http://www.w3.org/2000/svg" xmlns:xlink="http://www.w3.org/1999/xlink" x="0px" y="0px"
	 viewBox="0 0 100 125" style="enable-background:new 0 0 100 125;" xml:space="preserve">
<path d="M30,75.7l4.7-12.6c0,0-0.1-3.2-2.1-5.8s-6.2-12.8-6.1-14.5c0.1-1.7,0.1-4.9-4.5-0.4s-3.9-2.4-3-5s6.3-13.4,6.3-13.4
	s4.3-7.9,15.5,1.4c0,0-11-3-11.4,0.9c-0.3,3.9-1.3,11,5.6,12.5c6.9,1.5,25.3-0.8,25.3-0.8l5.9-0.8c0,0,9.8-2,9.3,16.8
	c0,0,1.8,8.5,3.2,10.8c1.1,1.9,1.5,9.8,1.4,10.7l-3.1-0.1L76,71.1l-1.5-3.9c0,0-9.4-9.3-10.6-10.3c-1.5-1.3-5-2.5-7.7-2
	c-2.7,0.5-11.4-2.5-15.5,6.9C36.6,71.2,33,76,33,76L30,75.7z"/>
<path d="M61.7,40.5"/>
</svg>
