<?xml version="1.0" encoding="utf-8"?>
<!-- Generator: Adobe Illustrator 24.0.1, SVG Export Plug-In . SVG Version: 6.00 Build 0)  -->
<svg version="1.1" id="Слой_1" xmlns="http://www.w3.org/2000/svg" xmlns:xlink="http://www.w3.org/1999/xlink" x="0px" y="0px"
	 viewBox="0 0 185 125" style="enable-background:new 0 0 185 125;" xml:space="preserve">
<path d="M115,75.7l4.7-12.6c0,0-0.1-3.2-2.1-5.8s-6.2-12.8-6.1-14.5c0.1-1.7,0.1-4.9-4.5-0.4c-4.6,4.5-3.9-2.4-3-5
	c0.9-2.6,6.3-13.4,6.3-13.4s4.3-7.9,15.5,1.4c0,0-11-3-11.4,0.9c-0.3,3.9-1.3,11,5.6,12.5c6.9,1.5,25.3-0.8,25.3-0.8l5.9-0.8
	c0,0,9.8-2,9.3,16.8c0,0,1.8,8.5,3.2,10.8c1.1,1.9,1.5,9.8,1.4,10.7l-3.1-0.1l-1-4.3l-1.5-3.9c0,0-9.4-9.3-10.6-10.3
	c-1.5-1.3-5-2.5-7.7-2s-11.4-2.5-15.5,6.9C121.6,71.2,118,76,118,76L115,75.7z"/>
<path d="M146.7,40.5"/>
<path d="M88.5,76c0,0-3.6-4.8-7.7-14.2c-4.1-9.4-12.8-6.4-15.5-6.9c-2.7-0.5-6.2,0.7-7.7,2C56.4,57.9,47,67.2,47,67.2l-1.5,3.9
	l-1,4.3l-3.1,0.1c-0.1-0.9,0.3-8.8,1.4-10.7C44.2,62.5,46,54,46,54c-0.5-18.8,9.3-16.8,9.3-16.8l5.9,0.8c0,0,18.4,2.3,25.3,0.8
	c6.9-1.5,5.9-8.6,5.6-12.5c-0.4-3.9-11.4-0.9-11.4-0.9C91.9,16.1,96.2,24,96.2,24s5.4,10.8,6.3,13.4s1.6,9.5-3,5s-4.6-1.3-4.5,0.4
	s-4.1,11.9-6.1,14.5s-2.1,5.8-2.1,5.8l4.7,12.6L88.5,76z"/>
</svg>
