<?xml version="1.0" encoding="utf-8"?>
<!-- Generator: Adobe Illustrator 24.0.1, SVG Export Plug-In . SVG Version: 6.00 Build 0)  -->
<svg version="1.1" id="Слой_1" xmlns="http://www.w3.org/2000/svg" xmlns:xlink="http://www.w3.org/1999/xlink" x="0px" y="0px"
	 viewBox="0 0 100 125" style="enable-background:new 0 0 100 125;" xml:space="preserve">
<path d="M50.7,50c0.5,0.4,1.2,0.9,1.3,1c0,0,3,2.1,2.1,10.8l1.3-0.3c1.7-9.8-3.1-13.8-3.3-14L51,46.1c0,0-1.6-2.5-3.6-2.1
	c0,0-0.9-1.8,0.2-2.3c0.3-0.1,0.7,0.2,1,0.2c1.9,0,3.4-1.6,3.4-3.5s-1.5-3.5-3.4-3.5s-3.4,1.6-3.4,3.5c0,0.4,0.1,0.8,0.2,1.2
	c0.2,1.2-2.7,3-5.6-0.1C37,36.4,41.1,22,41.1,22l-0.9-1.2c0,0-4.4,7.8-3.9,19.7s-8.7,25.7-8.7,25.7s4.2-1.8,4.2,0s-5.6,6.5-5.6,6.5
	L12,78.8v2.9l13.9-5.8c0,0,3.4-1.3,4.5-2.5s5-6.8,5-6.8s2.9-4.7,6.5,0.9S56.3,88,56.3,88h3.4l-16-27.4c0,0-3.2-6.8,2.5-8.3
	c1-0.3,2.2-1.3,2.9-2C49.1,50.2,49.8,49.2,50.7,50z"/>
<path d="M50.4,54.4"/>
<path d="M60.5,50.2c0.7,0.7,1.9,1.7,2.9,2c5.7,1.5,2.5,8.3,2.5,8.3l-16,27.4h3.4c0,0,10.8-14.9,14.4-20.5s6.5-0.9,6.5-0.9
	s3.9,5.6,5,6.8s4.5,2.5,4.5,2.5l13.9,5.8v-2.9l-14.2-6.1c0,0-5.6-4.7-5.6-6.5s4.2,0,4.2,0s-9.2-13.8-8.7-25.7s-3.9-19.7-3.9-19.7
	l-0.9,1.2c0,0,4.1,14.4,1.3,17.5c-2.9,3.1-5.8,1.3-5.6,0.1c0.1-0.4,0.2-0.8,0.2-1.2c0-1.9-1.5-3.5-3.4-3.5s-3.4,1.6-3.4,3.5
	s1.5,3.5,3.4,3.5c0.3,0,0.7-0.3,1-0.2c1.1,0.5,0.2,2.3,0.2,2.3c-2-0.4-3.6,2.1-3.6,2.1l-1.1,1.4c-0.2,0.2-5,4.2-3.3,14l1.3,0.3
	c-0.9-8.7,2.1-10.8,2.1-10.8c0.1-0.1,0.8-0.6,1.3-1C59.8,49.1,60.5,50.1,60.5,50.2z"/>
</svg>
