<?xml version="1.0" encoding="utf-8"?>
<!-- Generator: Adobe Illustrator 24.0.1, SVG Export Plug-In . SVG Version: 6.00 Build 0)  -->
<svg version="1.1" id="Слой_1" xmlns="http://www.w3.org/2000/svg" xmlns:xlink="http://www.w3.org/1999/xlink" x="0px" y="0px"
	 viewBox="0 0 100 125" style="enable-background:new 0 0 100 125;" xml:space="preserve">
<path d="M5,61.8C5,33,31.6,15.4,35.7,13.2c3-1.6,5.8-2.7,7.7-2.7c1.7,0,2.7,0.8,2.7,2.2c0,1.4-1.4,3-2.7,4.1
	c-3.8,2.7-14.5,17-14.5,30.5c0,3.6,1.9,6.8,4.1,8c2.5,1.4,14,3.8,14,18.4c0,8.5-6.9,15.9-16.5,15.9C17.9,89.5,5,79.9,5,61.8z"/>
<path d="M53,61.8C53,33,79.6,15.4,83.7,13.2c3-1.6,5.8-2.7,7.7-2.7c1.7,0,2.7,0.8,2.7,2.2c0,1.4-1.4,3-2.7,4.1
	c-3.8,2.7-14.5,17-14.5,30.5c0,3.6,1.9,6.8,4.1,8c2.5,1.4,14,3.8,14,18.4c0,8.5-6.9,15.9-16.5,15.9C65.9,89.5,53,79.9,53,61.8z"/>
</svg>
