<?xml version="1.0" encoding="utf-8"?>
<!-- Generator: Adobe Illustrator 24.0.1, SVG Export Plug-In . SVG Version: 6.00 Build 0)  -->
<svg version="1.1" id="Слой_1" xmlns="http://www.w3.org/2000/svg" xmlns:xlink="http://www.w3.org/1999/xlink" x="0px" y="0px"
	 viewBox="0 0 96 120" style="enable-background:new 0 0 96 120;" xml:space="preserve">
<style type="text/css">
	.st0{fill:#FFFFFF;}
</style>
<g>
	<path class="st0" d="M64.6,87c-1.5-6.1,0.6-8,0.6-8l0,0l0,0c5.9-8.5,9.2-17.3,9.8-26.4c0.5-7-0.6-14.1-3.2-21l-0.3-0.7l-4.3,6.2
		l1.7,7.1l-11.7,16L54.9,67v-7.2L63,43.1l-1.7-8l7.2-10.8l-0.1-0.2c-1.8-3.3-3.5-5.7-4.4-6.9c-0.1-0.2-0.3-0.4-0.3-0.5
		c-1.8-2.5-0.4-6.5-0.1-7.5H71c1,0,1.9-0.8,1.9-1.9V5.6c0-1-0.8-1.9-1.9-1.9H23.4c-1,0-1.9,0.8-1.9,1.9v1.8c0,1,0.8,1.9,1.9,1.9h7.7
		c0.4,1,1.7,5-0.1,7.5c-0.1,0.1-0.2,0.3-0.3,0.5c-1.2,1.6-4.2,5.9-6.8,11.9l-0.1,0.3l5.1,5.4l-1,9.5l3.9,3.9l0.6,5.3L30.3,48l-4.8-4
		l-0.9-5.6L21.7,35l-0.2,0.7c-1.9,6.5-2.4,13.2-1.5,19.6c1.1,8.1,4.3,16,9.5,23.6l0,0l0,0c0,0,2.1,1.9,0.6,8
		c-1.5-0.2-7.8-1.2-11.2-4.2l-0.7-0.6V83c0,0.1,0.1,9.2,9.3,9.2h39.6c9.1,0,9.3-9.1,9.3-9.2v-0.9l-0.7,0.6
		C72.4,85.8,66.1,86.8,64.6,87z M23.4,8.4c-0.6,0-1-0.5-1-1V5.6c0-0.6,0.5-1,1-1H71c0.6,0,1,0.5,1,1v1.8c0,0.6-0.5,1-1,1h-7H23.4
		L23.4,8.4z M30.1,78.4c-9.2-13.3-11.9-27.3-8-41.7l1.8,2l0.9,5.7l4.8,4L34,59.9l-1.3-12.1L28.8,44l1-9.5l-5-5.3
		c2.5-5.8,5.5-9.9,6.6-11.5c0.1-0.2,0.3-0.4,0.4-0.5c1.9-2.7,0.8-6.5,0.3-8h30.8c-0.5,1.5-1.6,5.3,0.3,8c0.1,0.1,0.2,0.3,0.4,0.5
		c0.8,1.1,2.4,3.4,4.2,6.5l-7.2,10.6l1.7,8.1l-8,16.6V72l4-11.5l11.9-16.2l-1.7-7.2l3.1-4.5c4,11,5.8,27.7-6.7,45.9
		c-0.4,0.3-2.3,2.6-0.8,8.6H31C32.5,81,30.5,78.8,30.1,78.4z M67.2,91.4H27.5c-6.7,0-8.1-5.2-8.4-7.4c3.6,2.7,9.2,3.6,10.8,3.8v0.1
		h34.4h0.5v-0.1c1.6-0.2,7.2-1.1,10.8-3.8C75.3,86.2,73.9,91.4,67.2,91.4z"/>
	<path class="st0" d="M47.4,47.5c1.8,0,3.4-1.5,3.4-3.4c0-1.8-1.5-3.4-3.4-3.4c-1.8,0-3.4,1.5-3.4,3.4S45.5,47.5,47.4,47.5z
		 M47.4,41.7c1.4,0,2.5,1.1,2.5,2.5s-1.1,2.5-2.5,2.5s-2.5-1.1-2.5-2.5S46,41.7,47.4,41.7z"/>
	<path class="st0" d="M78.5,35.9l3.6-3.4v-5L77.6,29L78.5,35.9z M81.3,28.7v3.5l-2.1,2l-0.6-4.6L81.3,28.7z"/>
	<path class="st0" d="M74.3,16.8v4.7h3.2l2.2-4.7H74.3z M76.9,20.7h-1.8v-3h3.2L76.9,20.7z"/>
	<path class="st0" d="M72.3,28.1l1.8,1.7l1.4-5.4l-3.2-1C72.3,23.4,72.3,28.1,72.3,28.1z M73.2,24.5l1.4,0.4l-0.9,3.3l-0.5-0.5V24.5
		z"/>
	<path class="st0" d="M17.7,34.7h-3.6V41l5-2.4L17.7,34.7z M15,35.5h2.2l1,2.7L15,39.7V35.5z"/>
	<path class="st0" d="M20.4,22.3l-4.1,1.6l-2.4,6l6.5-1.3V22.3z M19.6,27.8l-4.3,0.9l1.7-4.2l2.6-1V27.8L19.6,27.8z"/>
	<path class="st0" d="M40.3,45.5L40.3,45.5c0.1,0,0.2,0.1,0.3,0.1c0.4,0.1,1,0.3,1.1,0.4c0,0.2-0.5,0.9-0.8,1.3
		c-0.3,0.3-0.5,0.7-0.7,0.9c0,0.1-0.1,0.1-0.1,0.2c-0.2,0.4-0.3,0.8-0.1,1.1c0.1,0.1,0.1,0.2,0.3,0.2c0,0,0.1,0,0.2,0.1
		c0.1,0,0.2,0,0.3,0c0.5,0,1.1-0.2,1.7-0.4c0.5-0.2,1.1-0.4,1.4-0.4c0,0,0,0,0.1,0c0.1,0.2,0.1,1,0.1,1.5c0,0.9,0,1.6,0.3,2.1
		c0,0.1,0.1,0.1,0.1,0.2c0.1,0.1,0.1,0.1,0.2,0.1c0.1,0,0.1,0,0.2,0c0.2,0,0.4-0.1,0.6-0.3c0.3-0.3,0.6-0.7,1-1.3
		c0.1-0.2,0.4-0.5,0.5-0.7c0.1-0.1,0.1-0.2,0.2-0.2c0.1-0.1,0.2-0.2,0.3-0.2l0.1,0.1c0.2,0.2,0.5,0.6,0.8,1l0.1,0.1
		c0,0.1,0.1,0.1,0.1,0.2l0.1,0.1c0.5,0.7,0.9,1.2,1.4,1.2l0,0l0,0l0,0l0,0c0.1,0,0.1,0,0.2,0c0.7-0.2,0.6-1.2,0.6-2.3
		c0-0.1,0-0.3,0-0.4c0-0.1,0-0.1,0-0.2v-0.1c0-0.1,0-0.2,0-0.2c0-0.2,0-0.4,0.1-0.5c0,0,0,0,0.1,0c0.3,0,0.9,0.2,1.4,0.4
		c0.6,0.2,1.2,0.4,1.7,0.4c0.4,0,0.6-0.2,0.7-0.3c0.4-0.6-0.2-1.3-0.9-2.2c-0.3-0.4-0.8-1-0.8-1.3c0.2-0.2,0.9-0.4,1.4-0.5
		c1.1-0.3,2-0.6,2-1.3s-0.9-1-2-1.3c-0.5-0.1-1.2-0.4-1.4-0.5c0-0.2,0.5-0.9,0.8-1.3c0.7-0.9,1.3-1.7,0.9-2.2
		c-0.1-0.1-0.3-0.3-0.7-0.3c-0.5,0-1.1,0.2-1.7,0.4c-0.3,0.1-0.7,0.2-1,0.3c-0.2,0-0.3,0.1-0.4,0.1c0,0,0,0-0.1,0
		c-0.1-0.2-0.1-1-0.1-1.5c0-0.1,0-0.3,0-0.4c0-0.7,0-1.3-0.2-1.6c-0.1-0.1-0.2-0.2-0.4-0.3c-0.1,0-0.1,0-0.2,0H50
		c-0.1,0-0.1,0-0.2,0.1c-0.4,0.2-0.8,0.8-1.3,1.5c-0.3,0.4-0.8,1.1-1,1.2c0,0-0.1,0-0.1-0.1c-0.1,0-0.1-0.1-0.2-0.2
		c-0.1-0.1-0.1-0.2-0.2-0.3c0,0,0-0.1-0.1-0.1c0-0.1-0.1-0.1-0.1-0.2c-0.1-0.1-0.2-0.3-0.3-0.4c-0.1-0.1-0.1-0.2-0.2-0.2
		c-0.1-0.1-0.2-0.3-0.3-0.4l0,0c-0.1-0.1-0.2-0.2-0.2-0.3c-0.1-0.1-0.1-0.1-0.2-0.2l0,0l-0.1-0.1c-0.1,0-0.1-0.1-0.2-0.1l-0.1-0.1
		c-0.1-0.1-0.3-0.1-0.4-0.1c-0.1,0-0.1,0-0.2,0c-0.4,0.1-0.5,0.5-0.6,1c0,0.1,0,0.1,0,0.2c0,0.1,0,0.2,0,0.4c0,0.3,0,0.5,0,0.8
		c0,0.5,0,1.3-0.1,1.5c0,0,0,0-0.1,0h-0.1c-0.3,0-0.7-0.2-1-0.3c-0.1,0-0.2-0.1-0.3-0.1c-0.2-0.1-0.4-0.1-0.5-0.2
		c-0.3-0.1-0.5-0.2-0.8-0.2H41c-0.1,0-0.2,0-0.3,0c-0.4,0-0.6,0.2-0.7,0.3c-0.4,0.6,0.2,1.3,0.9,2.2c0.3,0.4,0.8,1,0.8,1.3
		c-0.2,0.2-0.9,0.4-1.4,0.5c-1.1,0.3-2.1,0.6-2.1,1.3C38.2,44.9,39.2,45.2,40.3,45.5z M40.5,43.6c0.5-0.2,1-0.3,1.4-0.5L42,43
		c0.2-0.1,0.4-0.3,0.4-0.5c0.1-0.2,0-0.5-0.1-0.7s-0.2-0.3-0.3-0.5l-0.1-0.1c-0.1-0.1-0.1-0.2-0.2-0.3c-0.1-0.1-0.2-0.3-0.3-0.4
		l-0.1-0.1l-0.1-0.1c-0.2-0.3-0.5-0.7-0.6-0.9c0.3,0,0.9,0.2,1.4,0.4c0.2,0.1,0.3,0.1,0.4,0.2c0.1,0,0.1,0,0.2,0.1h0.1
		c0.4,0.1,0.7,0.2,1,0.2c0.2,0,0.4-0.1,0.5-0.2c0.1,0,0.1-0.1,0.2-0.1c0.2-0.2,0.3-0.6,0.3-1.1c0-0.1,0-0.1,0-0.2c0-0.2,0-0.5,0-0.7
		c0-0.5,0-1.2,0.1-1.5c0.2,0.2,0.6,0.8,0.9,1.1c0.6,0.8,1.1,1.6,1.7,1.6h0.1c0.1,0,0.1,0,0.2-0.1c0.1,0,0.1-0.1,0.2-0.1
		c0.4-0.3,0.8-0.8,1.2-1.4c0.2-0.3,0.5-0.8,0.8-1l0.1-0.1c0.1,0.3,0.1,1,0.1,1.5c0,1,0,1.9,0.4,2.2c0,0,0.1,0,0.1,0.1
		c0.1,0.1,0.3,0.1,0.4,0.1l0,0c0.1,0,0.2,0,0.3,0c0.4-0.1,0.9-0.2,1.4-0.4c0.2-0.1,0.3-0.1,0.5-0.2c0.3-0.1,0.7-0.2,0.9-0.2
		c0,0.1-0.1,0.2-0.2,0.4c0,0.1-0.1,0.1-0.1,0.2c-0.1,0.2-0.3,0.4-0.4,0.6c-0.5,0.7-1,1.3-1,1.8c0,0.1,0,0.1,0,0.2
		c0.2,0.5,1,0.8,1.9,1.1c0.1,0,0.1,0,0.2,0.1c0.1,0,0.1,0,0.2,0.1c0.4,0.1,0.9,0.3,1.1,0.4c-0.2,0.2-1,0.4-1.4,0.5
		c-1,0.3-1.8,0.5-1.9,1.1c-0.2,0.6,0.3,1.3,1,2.1c0.1,0.1,0.1,0.2,0.2,0.3c0.1,0.1,0.1,0.2,0.2,0.2c0.2,0.2,0.3,0.5,0.4,0.6h-0.1
		l0,0c-0.1,0-0.2,0-0.3-0.1l0,0l0,0c-0.3-0.1-0.6-0.2-0.9-0.3c-0.1,0-0.2-0.1-0.3-0.1c-0.5-0.2-1-0.3-1.4-0.3c-0.1,0-0.1,0-0.2,0
		c-0.2,0-0.3,0.1-0.4,0.1c-0.6,0-0.7,0.4-0.7,1c0,0.1,0,0.2,0,0.3s0,0.2,0,0.4c0,0.1,0,0.2,0,0.4s0,0.4,0,0.6c0,0.3,0,0.7-0.1,0.9
		c-0.2-0.2-0.6-0.8-0.9-1.1c-0.3-0.5-0.6-0.9-0.9-1.2L48,49.8l-0.1-0.1c-0.1,0-0.1-0.1-0.2-0.1c-0.1,0-0.2-0.1-0.3-0.1
		s-0.2,0-0.3,0.1s-0.3,0.2-0.4,0.3c-0.1,0.1-0.2,0.2-0.3,0.4c-0.2,0.2-0.4,0.5-0.6,0.8c-0.1,0.2-0.3,0.4-0.4,0.6
		c-0.1,0.1-0.2,0.2-0.3,0.3s-0.1,0.2-0.2,0.2c-0.1-0.3-0.1-1-0.1-1.5c0-1,0-1.9-0.4-2.2c0,0-0.1,0-0.1-0.1c-0.1-0.1-0.3-0.1-0.4-0.1
		l0,0c-0.2,0-0.5,0.1-0.8,0.1c-0.2,0.1-0.4,0.1-0.6,0.2c-0.1,0-0.2,0.1-0.3,0.1S42,48.8,42,48.8c-0.4,0.1-0.8,0.3-1.1,0.3h-0.1
		c0.1-0.3,0.5-0.8,0.8-1.2c0.6-0.8,1.1-1.5,1-2.1c-0.2-0.5-1-0.8-1.9-1.1c-0.5-0.1-1.2-0.4-1.4-0.5C39.3,44,40.1,43.8,40.5,43.6z"/>
</g>
</svg>
