<?xml version="1.0" encoding="utf-8"?>
<!-- Generator: Adobe Illustrator 24.0.1, SVG Export Plug-In . SVG Version: 6.00 Build 0)  -->
<svg version="1.1" id="Слой_1" xmlns="http://www.w3.org/2000/svg" xmlns:xlink="http://www.w3.org/1999/xlink" x="0px" y="0px"
	 viewBox="0 0 100 125" style="enable-background:new 0 0 100 125;" xml:space="preserve">
<path d="M56.6,36.9c-0.5,0.6-0.4,1.6,0.2,2.1l4.6,3.6l6,5.4H29.7c-0.8,0-1.5,0.7-1.5,1.5s0.7,1.5,1.5,1.5h37.3l-10.5,9.1
	c-0.6,0.5-0.7,1.5-0.2,2.1c0.5,0.6,1.5,0.7,2.1,0.2l13.7-11.8c0.3-0.3,0.5-0.7,0.5-1.1c0,0,0,0,0,0c0-0.4-0.2-0.8-0.5-1.1l-8.9-7.9
	l-4.7-3.7C58,36.2,57.1,36.3,56.6,36.9z"/>
</svg>
