<svg xmlns="http://www.w3.org/2000/svg" xmlns:xlink="http://www.w3.org/1999/xlink" version="1.1" x="0px" y="0px" viewBox="0 0 100 125" enable-background="new 0 0 100 100" xml:space="preserve"><path d="M29.99,75.687l4.72-12.574c0,0-0.096-3.208-2.125-5.832c-2.029-2.624-6.223-12.778-6.075-14.46  c0.147-1.681,0.051-4.889-4.483-0.392s-3.93-2.414-2.954-4.964s6.252-13.381,6.252-13.381s4.268-7.907,15.503,1.356  c0,0-11.028-3.035-11.371,0.888c-0.343,3.922-1.252,10.994,5.626,12.537c6.882,1.543,25.343-0.794,25.343-0.794l5.905-0.801  c0,0,9.771-1.969,9.257,16.809c0,0,1.784,8.527,3.195,10.819c1.147,1.87,1.463,9.77,1.381,10.704l-3.06-0.123l-1.118-4.427  l-1.541-3.899c0,0-9.447-9.331-10.577-10.336c-1.487-1.317-5.05-2.513-7.731-1.993c-2.68,0.518-11.449-2.508-15.475,6.927  c-4.025,9.436-7.642,14.201-7.642,14.201L29.99,75.687z"/><path d="M61.701,40.45"/><text x="0" y="115" fill="#000000" font-size="5px" font-weight="bold" font-family="'Helvetica Neue', Helvetica, Arial-Unicode, Arial, Sans-serif">Created by Luke Anthony Firth</text><text x="0" y="120" fill="#000000" font-size="5px" font-weight="bold" font-family="'Helvetica Neue', Helvetica, Arial-Unicode, Arial, Sans-serif">from the Noun Project</text></svg>