<?xml version="1.0" encoding="utf-8"?>
<!-- Generator: Adobe Illustrator 24.0.1, SVG Export Plug-In . SVG Version: 6.00 Build 0)  -->
<svg version="1.1" xmlns="http://www.w3.org/2000/svg" xmlns:xlink="http://www.w3.org/1999/xlink" x="0px" y="0px"
	 viewBox="0 0 640 480" style="enable-background:new 0 0 640 480;" xml:space="preserve">
<style type="text/css">
	.st0{display:none;}
</style>
<g id="Слой_1">
	<g>
		<path d="M344.9,244.1c-1.2-5.6-2.7-9.5-2.6-13.4c0.1-3.7,1.9-7.4,3.8-10.9c2,11.5,9.5,17.9,18.4,23.2
			c14.7,8.8,30.3,14.6,47.6,14.8c11,0.1,21.9-0.8,32.3-5.2c10.5-4.4,14.6-13.5,15.9-23.6c0.9-7.3-3.5-12.9-9.5-17
			c-4.9-3.3-8.5-2.6-11.7,2.4c-4.8,7.6-12.2,11.4-20.2,14.7c-12.9,5.4-26.6,6-40.4,6.4c3.6-1.7,7.3-3.3,10.9-5
			c-8.4-2.6-16.8-3.1-23.7-8.3c5.4-10.8-6.2-12.7-9.4-18.9c4.7-3.2,7.7-3,12.1,3.3c13.8,19.5,50,19,66.4,2.9
			c7.5-7.4,8.1-22.1,0.4-29.4c-2-1.8-5.1-2.4-7.5-3.5c4-3.7,5.9-3.6,12.3,1.2c0.6-1.4,1.1-2.6,1.7-3.9c0.3,0.1,0.7,0.1,0.8,0.3
			c4.4,7.9,6,16.4,4.8,25.3c-0.4,3.3,1,5.2,4,4.5c4.4-1,9-2.2,12.9-4.5c10.1-6,16.1-15.6,21.6-26.1c1.7,2.2,3.5,3.9,4.6,6
			c0.6,1,0.5,2.7,0.1,4c-0.9,4-2.2,7.9-3.2,11.9c-1.6,6.9-3.1,13.8-4.8,21.7c7.6,3.9,13,10.9,11.4,22.1c-1.2-0.7-2-1.2-2.4-1.4
			c2.3,7.2,4.7,14.6,7.1,21.9c-0.4,0.4-0.7,0.7-1.1,1.1c-2.6-1.6-5.1-3.2-7.7-4.8c7.8,9,10.6,19.3,7.7,31.1
			c-1.2-0.2-2.5-0.5-3.9-0.8c-0.4,0.3-0.8,0.7-1.1,1c1.4,1.7,2.5,4.5,4.2,5.1c27,8.9,50.9,23.6,74.6,38.9c3.2,2,7.1,3.1,10.9,3.8
			c5.4,1.1,10.7,2,15.5,7c-5.1,0.7-9.2,3.7-13.2-0.9c-0.3-0.4-0.8-0.7-1.3-0.7c-13-0.7-21.2-10.9-31.9-16.1
			c-19.2-9.2-38.4-17.6-59.6-20.7c-7.6-1.1-14.8-0.3-22.1,2.2c-15.1,5-31,9.2-46.6,6.6c-10.2-1.7-21.1-0.5-30.7-5.4
			c-2-1-3.4-3.2-5.3-4.5c-1.7-1.1-3.7-1.9-5.7-2.6c-8.4-3-16.7-6.5-25.3-8.8c-10.2-2.7-20.5-0.8-30.7,1.1c-14.5,2.6-29,3.5-43.8,2
			c-2.4-0.3-5.6,0.8-7.5,2.4c-14.6,11.9-31.7,18-49.5,22.9c-1,0.3-2.7-0.2-3.4-0.9c-2.2-2.7,1.4-10.8,4.9-11.6
			c3.5-0.8,6.6-1.6,8.7,2.7c0.4,0.9,3,1.4,4.3,1c4.2-1.4,8.7-2.6,12.3-5.1c6.3-4.3,12-9.4,17.8-14.3c1-0.9,1.2-2.7,2.1-3.8
			c0.9-1,2.3-2.6,3.3-2.4c11.3,1.3,20-4.3,27.7-11.3c6.2-5.7,11.5-12.3,16.9-18.8c1.6-1.9,1.8-4.9,3.2-7.1c1-1.5,2.8-3.2,4.3-3.3
			C332.5,243.9,338.2,244.1,344.9,244.1z"/>
		<path d="M179.1,144.3c6.3,7.3,12.6,14.6,18.7,21.8c-8.8,1.5-18,3.1-27.3,4.7c-0.3-0.3-0.5-0.7-0.8-1c3.7-2.4,7.5-4.7,12.4-7.9
			c-8.5-2.3-15.7-4.2-22.8-6.1c-15.1-4-30.2-8.1-45.4-12c-1.6-0.4-4.4,0.2-5.3,1.4c-9.9,12.9-19.6,26-29.3,39.1
			c-0.6,0.8-0.9,1.7-1.9,3.6c14.5,4.7,28.6,9.2,42.9,13.8c1.7-5.1,1.2-7.7-3.2-11.3c-4.2-3.4-7-9.6-8.3-15c-0.5-2.2,4.1-6.8,7.3-8.4
			c8.5-4.4,17.9,0.4,20.5,9.6c1.5,5.4,2.8,10.8,4.3,16.9c-4.1,0.3-7.5,0.6-10.8,0.9c0,10.4,0.4,10.5,10.4,10.4
			c10.3-0.1,20.6,0.5,30.9,0.4c2.2,0,4.8-1.2,6.4-2.7c6.4-5.8,12.5-11.9,18.6-18.2c1.8-1.8,2.8-4.3,4.5-6.9c1.4,0.8,2.9,1.6,4.9,2.8
			c-8.5,11.3-16.8,22.3-25.8,34.2c-14.3,0-29.5,0-45.3,0c3.2,11.8,5.9,22.7,9,33.6c1.4,5,3.5,9.7,5,14.6c0.8,2.6,2.2,3.4,5,3.7
			c19.7,1.8,39.4,3.9,59,6.1c1.8,0.2,4.8,1.7,5,3c0.3,2-0.6,5-2,6.5c-14.2,14.1-28.6,27.9-43,41.8c-1.1,1-2.3,1.9-4,3.4
			c5.7,3.7,10.1,7.9,16.8,8c1,0,2,1.1,3.1,1.8c-1,0.6-2.1,1.8-3,1.7c-9.9-0.8-19.8-1.8-29.7-2.9c-0.7-0.1-1.8-1.4-1.7-1.9
			c0.3-1.3,0.8-3,1.8-3.7c11.8-7.7,21-17.8,27.6-30.2c2.6-4.9,6.1-9.5,9.9-15.2c-8.3,0.7-16,1.9-23.6,1.7
			c-11.4-0.3-19.3,4.4-26.7,13.1c-10.4,12.2-22.5,23.1-34.2,34.2c-1.7,1.6-5.3,2.2-7.7,1.7c-18.5-3.3-36.9-7.1-55.5-10.2
			c-3.4-0.6-7.5,0.7-10.6,2.4c-6.2,3.4-11.9,7.7-17.8,11.6c0.1-0.4,0-1.5,0.4-2.5c2.6-5.6,5-11.3,8-16.6c0.9-1.6,3.5-3.2,5.3-3.1
			c12.9,0.7,25.8,2,38.7,2.9c9.7,0.6,19.6,0.2,28.4,5.8c0.7,0.5,3.4-0.7,4.1-1.8c4.3-7.5,8.2-15.2,12.3-22.9c0.9-1.7,2.2-3.3,3.2-5
			c1.6-2.7,3.6-5.3,0-8.2c-0.6-0.5-1-2.4-0.5-3.1c3.9-6.7,5.9-15,14.4-18.5c-2.8-12.6-6.5-25.1-8-37.9c-1.5-12-7.1-17.6-18.5-20.8
			c-12.9-3.7-25.1-9.7-37.6-14.8c-3.8-1.5-3.7-6.7-0.2-10.3c11.3-11.7,22.6-23.5,33.8-35.3c1.4-1.4,2.5-3,4.4-5.3
			c-6.9-2-13.2-3.9-19.5-5.7c-5.7-1.7-11.4-3.5-17.1-5.1c-2.5-0.7-5.2-0.8-7.8-1.1c-3.8-0.5-5.3-2.2-3.1-6.5
			c42,12,83.9,24,126.6,36.2c-2.5-5.4-4.7-10.1-6.8-14.8C178.1,144.6,178.6,144.5,179.1,144.3z"/>
		<path d="M463.1,124.7c0.7,1,1.6,1.9,2,3c3.6,9.8,6.8,10.8,13.6,4.4c0.1,16.9,6.6,30.4,21.9,39.3c8.2,4.8,19.2,3.6,26.4-3.1
			c1.3-1.2,2.7-2.4,5.2-4.8c-1.8,4-3.1,6.8-4.3,9.6c3.1,1.4,3.1,1.4,14.3-3.1c-6.6,8.6-15.3,9-23.8,9.7c1.4,9,8,12.1,14.8,14.3
			c9.5,3,19.3,5.1,29.1,7.7c-1.7,3.2-3.3,6.7-9.6,6.3c-5-0.3-10.2,2.2-15.4,3.5c-2.3,0.6-4.5,1.4-6.7,1.8c-6.3,1-9.4,4.6-8.9,11
			c0.2,2.8,0.8,5.6,1.1,8.3c0.1,0.8,0.5,1.8,0.1,2.3c-4.9,7.1-1.2,13.1,3.1,18.3c6.3,7.8,7,16.2,4.3,25.2c-0.7,2.3-1.3,4.1,1.8,5
			c20.2,5.6,38,15.8,54.8,27.9c5.3,3.9,10.8,6.1,17.3,6.9c2.1,0.2,4.1,1.7,6,2.8c0.2,0.1-0.5,2.4-0.8,2.5c-2.4,0.2-5,0.5-7.3,0
			c-12.8-2.5-21.7-12.6-33.6-17.3c-19.9-7.9-39.6-15.8-61.7-12.4c-0.5-7.8-0.5-7.8,3.2-13.4c-1.7,0.5-3,0.8-4.3,1.2
			c-0.4-0.4-0.7-0.7-1.1-1.1c2.7-2.5,5.5-5.1,8.2-7.6c-0.1-0.2-0.2-0.5-0.3-0.7c-2.6,1.4-5.3,2.7-7.9,4.1c-0.3-0.5-0.7-0.9-1-1.4
			c3.7-3.4,7.5-6.7,11.2-10.1c-0.2-0.3-0.4-0.5-0.6-0.8c-3.6,2.3-7.2,4.7-10.7,7c-0.3-0.2-0.6-0.4-0.9-0.7c0.4-1.2,0.8-2.5,1.4-4
			c-1.3,0.1-2.5,0.3-3.7,0.4c-0.2-0.3-0.4-0.6-0.6-1c4.1-3.8,8.3-7.6,12.4-11.4c-0.2-0.2-0.3-0.5-0.5-0.7c-2.5,1-5,2-7.5,3
			c-0.4-0.5-0.8-0.9-1.2-1.4c3-2.9,6-5.7,9-8.6c-0.2-0.3-0.3-0.5-0.5-0.8c-2.5,1.1-5.1,2.3-7.6,3.4c-0.4-0.4-0.9-0.8-1.3-1.1
			c1.7-2.5,3.4-4.9,5.2-7.6c-0.6,0.1-1.2,0.3-1.8,0.3c-1-0.1-2-0.3-3-0.5c0.4-1,0.5-2.1,1.2-2.8c1.4-1.6,3-2.9,4.1-5.1
			c-1.3,0.5-2.5,1-4.4,1.8c-1.7-5.3,4.2-5.5,5.3-9.1c-2.6,0.8-4.8,1.4-7,2c-0.3-0.3-0.6-0.6-0.8-0.9c1.5-2,3.1-4,4.8-6.3
			c-2,0.8-3.8,1.4-5.5,2c-0.3-0.4-0.6-0.8-1-1.2c3.1-2.7,6.3-5.4,9.4-8.1c-0.2-0.3-0.3-0.5-0.5-0.8c-3.2,1.8-6.4,3.6-9.6,5.4
			c-0.4-0.4-0.9-0.8-1.3-1.1c1.4-1.8,2.8-3.7,4.3-5.6c-2.8,0.5-5.6,1-8.5,1.5c-0.1-0.5-0.3-1.1-0.4-1.6c0.8-0.7,1.6-1.6,2.5-2
			c6.7-3,11.1-8.3,14.6-14.5c0.8-1.4,2.8-2.1,5-3.6c-0.8-2.8-1.5-6.6-3-10c-0.6-1.4-2.9-2.8-4.6-3c-13.8-2.3-24.1-10.8-34.3-19.4
			c-1.9-1.6-1.9-5.8-3.9-7.1c-5.1-3.4-5.9-8.7-7.1-13.8c-0.9-3.7-0.7-7.7-1-11.6C461.8,125.1,462.4,124.9,463.1,124.7z"/>
		<path d="M154.3,261.7c0-5.4-0.1-10.8,0.1-16.1c0-0.7,1.3-1.8,2.3-2.1c9-2.8,18.1-5.5,27.2-8.2c2.2-0.7,4.5-1.6,6.8-1.6
			c6.6,0.1,11-3.6,15.4-7.8c2.4-2.3,5.4-3.9,8-6c2.3-1.8,5.2-2.9,3.5-7.4c-1.4-3.9,4.7-10.2,9.1-11c1.4-0.3,2.9-1.3,3.9-2.4
			c6.9-8.1,13.6-16.3,21.4-25.8c-5.6,0-10.2-0.2-14.6,0.2c-1.1,0.1-2.3,2.2-2.9,3.6c-2.7,6.2-5.3,12.5-9,18.8c0-1.7-0.3-3.5,0-5.1
			c1.3-6.8,2.6-13.7,4.4-20.4c0.3-1.4,2.4-3.3,3.7-3.2c8,0.2,15.9,0.7,23.8,1.3c4,0.3,6.6-3.9,5.5-7.7c-0.9-3.2-1.5-6.9-0.6-10
			c0.8-2.5,2.6-6.3,6.8-5.3c4.4,1.1,9.4,1.3,11.2,6.8c0.4,1.4,0.9,2.9,1.7,4.1c1.8,2.7,1.5,5.4-0.8,7.1c-1.5,1.2-4.3,1.9-6,1.4
			c-4.1-1.2-6.4-0.2-7.8,4.7c8.3,0.7,16.4,1.4,26.1,2.3c-1.4-5.3-3-9.4-3.6-13.6c-0.9-5.7-3.8-9-8.9-11.6
			c-12.6-6.5-24.9-13.4-37.3-20.2c-1.1-0.6-2.2-1.4-3.4-2.1c1.5-4.6,3.5-5.3,7.7-2.7c24.5,15.5,49.1,30.7,73.7,45.9
			c0.8,0.5,1.6,0.9,3.3,1.9c-0.2-3.7-0.3-6.6-0.5-9.4c0.3-0.1,0.5-0.3,0.8-0.4c2.9,5.7,5.8,11.4,8.9,17.5c-7.8-1-14.6-1.9-21.3-2.8
			c-0.1-0.5-0.2-0.9-0.3-1.4c3.2-0.6,6.4-1.1,10.7-1.9c-10.7-6.1-20.5-11.8-30.3-17.4c-0.4,0.2-0.8,0.5-1.2,0.7
			c2,5.3,3.9,10.6,6.1,15.7c2.4,5.7,1.7,6.8-4.2,6.8c-8.8,0-17.6,0.2-26.4,0.4c-1.2,0-2.6,0.7-3.4,1.6c-7.5,8.3-14.9,16.6-22.3,25
			c-0.4,0.5-0.7,1.1-1.3,2c6.7,3,13.2,6,19.6,9c9.5,4.4,19,8.7,28.5,13.2c1,0.5,2.3,2.5,2.1,3.1c-0.9,2.1-2.1,4.8-3.9,5.5
			c-9.5,4-19.2,7.5-28.9,11c-6.1,2.2-11.3,4.9-11.3,12.7c0,1.2-1.2,2.5-1.9,3.8c-0.6,0-1.2,0-1.9,0c-0.6-3.9-1.4-7.8-1.8-11.8
			c-0.1-0.7,1.3-1.7,2.2-2.3c4.7-2.9,9.6-5.7,14.3-8.6c5.6-3.5,11.1-7.1,16.8-10.8c-5-1.1-10.7-2.2-16.3-3.4
			c-8.5-1.8-16.9-3.6-25.4-5.2c-1.6-0.3-3.6,0-5,0.8c-6.1,3.7-12.4,7.3-18.1,11.6c-7.9,5.9-17.2,6.8-26.3,8.5
			c-3.9,0.7-7.8,1.9-11.8,2.1c-8.8,0.6-12.3,6.2-14.1,13.7c-0.3,1.1-0.7,2.1-1.1,3.1C155.4,261.8,154.9,261.8,154.3,261.7z"/>
		<path d="M343.2,300.7c6.8-0.4,13.5-0.8,20.3-1.2c0.1,0.7,0.3,1.4,0.4,2.2c-3,0.9-6,1.8-9,2.8c0,0.3,0.1,0.6,0.1,0.9
			c5-0.2,9.9-0.5,14.9-0.7c0.2,0.6,0.4,1.2,0.6,1.8c-2.7,1.4-5.3,3.5-8.2,4.1c-19,3.7-38.1,6-57.4,3c-2.1-0.3-5,0.6-6.7,1.9
			c-9.2,6.8-19,12.4-30,15.4c-4.7,1.3-9.7,1.9-15.3,3c0.2-2-0.1-3.5,0.6-4.3c2.2-2.4,4.6-4.8,7.3-6.7c1.3-0.9,4.3-1.4,5-0.7
			c4.2,4.6,8.7,2.1,12.3,0.1c6.9-3.9,13.1-9,19.7-13.3c1.9-1.3,4.3-2.4,6.5-2.6c12-0.8,23.7-2.6,34.5-8.6c2.8-1.6,6.2-2.1,9.4-3.1
			c0.3,0.6,0.5,1.2,0.8,1.8c-2,1.1-3.9,2.2-5.9,3.4C343.2,300.2,343.2,300.5,343.2,300.7z"/>
		<path d="M434.3,331.5c5.7,0.8,11.3,1.6,17,2.5c0,0.3,0.1,0.6,0.1,0.9c-5.5,2.6-11,5.2-16.8,7.9c-0.2-1.3-0.5-2.5-0.7-4.1
			c-10,1.3-19.7,2.7-29.4,3.8c-19.8,2.3-39.6,4.5-59.5,6.9c-2.2,0.3-4.4,0.5-4.2-2.3c0.1-1,2.5-2.4,4-2.6
			c20.2-2.3,40.4-4.6,60.6-6.7c7.9-0.8,15.9-1.3,23.8-2.2c1.9-0.2,3.6-1.7,5.4-2.6C434.5,332.5,434.4,332,434.3,331.5z"/>
	</g>
</g>
<g id="Слой_2" class="st0">
</g>
</svg>
