<?xml version="1.0" encoding="utf-8"?>
<!-- Generator: Adobe Illustrator 24.0.1, SVG Export Plug-In . SVG Version: 6.00 Build 0)  -->
<svg version="1.1" id="Слой_1" xmlns="http://www.w3.org/2000/svg" xmlns:xlink="http://www.w3.org/1999/xlink" x="0px" y="0px"
	 viewBox="0 0 100 125" style="enable-background:new 0 0 100 125;" xml:space="preserve">
<path d="M81.2,71.4"/>
<path d="M20.5,42.3c0.1-1.3,0.6-1.9,1.7-2.9c1.9-1.7,5.1-1.5,9.7,0.5c16.1,6.9,24,2.7,24.1,2.7l0.2-0.1c0,0,5.9-7.6,6.1-7.8
	S44,45.8,25.6,26.8c0,0,20.6,14.9,39.1,4.3c0,0,6.5-4.1,12.1-2.5s2.5,4.1,7,6.2c6.7,3.1,0.6,5.7,0.6,5.7c-7.4-4.1-6.3-2.4-6.3-2.4
	s8.1,10.1,2.2,3.8c-5.9-6.2-7.2-1.7-7.2-1.7s-3.9,10.4-5.7,15.2l0.3,0.7l5.5,12.9l-3.8,2.7l-3.9-10.1v8.7l-3.4,1.6L62,70.9
	c-0.2-0.7-0.3-1.7-0.4-2.8c-0.2-2.4-0.6-5.9-1.9-6.5c-0.8-0.4-2.1,0.4-2.9,1.1C50,68,39.4,67.1,34.6,64.5c-1.5-0.8-2.8-1.1-3.7-0.7
	c-0.8,0.3-1.1,1-1.1,1l-3.8,8.4l-3.2-1.6l4.1-9L25.1,62L19,70.4l-3.2-1.5l0.5-0.7c2.6-3.8,6.7-10.5,6.5-12.3c0-0.4-0.3-1.3-0.6-2.3
	c-0.3-1-0.6-2.2-0.9-3.4l-0.2,0.3c0,0-1.5,5.8-4.1,10.1C14.5,64.9,13,66,13,66c4.7-7.2,7.5-23.5,7.5-23.5L20.5,42.3z M65.2,54.6
	C65,53.6,65,52.8,65,52.4c0-1.4-2-0.4-2-0.4s-2.2,1-2.7,1.2c-0.5,0.3-1.1,0.4-1.2-0.1l-2.7-9c-0.3,0.2-8.2,4.4-25.1-2.8
	c-4-1.7-6.8-1.9-8.1-0.7c-2.5,2.2-0.6,9.1,0.4,12.8c0.3,1.2,0.6,2.1,0.6,2.6c0.2,2.6-4.4,9.8-6.3,12.5l0.5,0.2l6-8.3l4.3,1.4
	l-4.2,9.2l0.5,0.3l3.2-7c0,0,0.5-1.3,2-1.8c1.4-0.5,3-0.2,4.9,0.8c4.5,2.4,14.5,3,20.5-1.7c1.8-1.4,3.3-1.8,4.5-1.3
	c2.2,0.9,2.5,4.6,2.8,7.8c0.1,0.6,0.1,1.1,0.2,1.6l0.8-0.4l0.1-9.4l1.6-0.8l4.4,10.1l1.2-0.8l-4.6-10.8L65.2,54.6z"/>
</svg>
