<?xml version="1.0" encoding="utf-8"?>
<!-- Generator: Adobe Illustrator 24.0.1, SVG Export Plug-In . SVG Version: 6.00 Build 0)  -->
<svg version="1.1" id="Слой_1" xmlns="http://www.w3.org/2000/svg" xmlns:xlink="http://www.w3.org/1999/xlink" x="0px" y="0px"
	 viewBox="0 0 100 125" style="enable-background:new 0 0 100 125;" xml:space="preserve">
<rect x="60.3" y="-1.3" transform="matrix(0.7193 -0.6947 0.6947 0.7193 -9.882 53.4118)" width="1.8" height="80.6"/>
<path d="M53.5,52.7c0.5,0.4,1.2,0.9,1.3,1c0,0,3,2.1,2.1,10.8l1.3-0.3c1.7-9.8-3.1-13.8-3.3-14l-1.1-1.4c0,0-1.6-2.5-3.6-2.1
	c0,0-0.9-1.8,0.2-2.3c0.3-0.1,0.7,0.2,1,0.2c1.9,0,3.4-1.6,3.4-3.5s-1.5-3.5-3.4-3.5c-1.9,0-3.4,1.6-3.4,3.5c0,0.4,0.1,0.8,0.2,1.2
	c0.2,1.2-2.7,3-5.6-0.1c-2.8-3.1,1.3-17.5,1.3-17.5L43,23.5c0,0-4.4,7.8-3.9,19.7c0.5,11.9-8.7,25.7-8.7,25.7s4.2-1.8,4.2,0
	c0,1.8-5.6,6.5-5.6,6.5l-14.2,6.1v2.9l13.9-5.8c0,0,3.4-1.3,4.5-2.5s5-6.8,5-6.8s2.9-4.7,6.5,0.9c3.6,5.6,14.4,20.5,14.4,20.5h3.4
	l-16-27.4c0,0-3.2-6.8,2.5-8.3c1-0.3,2.2-1.3,2.9-2C51.9,52.9,52.6,51.9,53.5,52.7z"/>
<path d="M50.4,54.4"/>
</svg>
