<?xml version="1.0" encoding="utf-8"?>
<!-- Generator: Adobe Illustrator 24.0.1, SVG Export Plug-In . SVG Version: 6.00 Build 0)  -->
<svg version="1.1" id="Слой_1" xmlns="http://www.w3.org/2000/svg" xmlns:xlink="http://www.w3.org/1999/xlink" x="0px" y="0px"
	 viewBox="0 0 150 150" style="enable-background:new 0 0 150 150;" xml:space="preserve">
<g id="surface1246976">
	<path d="M96,33h15c1.7,0,3-1.3,3-3V9.8c0-1.6-1.2-2.9-2.8-3C106.5,6.5,97.1,6,90.4,6C72,6,60,17,60,37.1V57H39c-1.7,0-3,1.3-3,3v21
		c0,1.7,1.3,3,3,3h21v57c0,1.7,1.3,3,3,3h21c1.7,0,3-1.3,3-3V84h21.7c1.5,0,2.8-1.1,3-2.7l2.3-21c0.2-1.8-1.2-3.3-3-3.3H87V42
		C87,37,91,33,96,33z"/>
</g>
</svg>
