<?xml version="1.0" encoding="utf-8"?>
<!-- Generator: Adobe Illustrator 24.0.1, SVG Export Plug-In . SVG Version: 6.00 Build 0)  -->
<svg version="1.1" id="Слой_1" xmlns="http://www.w3.org/2000/svg" xmlns:xlink="http://www.w3.org/1999/xlink" x="0px" y="0px"
	 viewBox="0 0 100 125" style="enable-background:new 0 0 100 125;" xml:space="preserve">
<g>
	<path d="M79.4,76.6L58.9,56.1C62.1,52.3,64,47.3,64,42c0-12.1-9.9-22-22-22s-22,9.9-22,22s9.9,22,22,22c5.3,0,10.3-1.9,14.1-5.1
		l20.5,20.5c0.8,0.8,2,0.8,2.8,0C80.2,78.6,80.2,77.4,79.4,76.6z M42,60c-9.9,0-18-8.1-18-18s8.1-18,18-18s18,8.1,18,18
		S51.9,60,42,60z"/>
</g>
</svg>
