<?xml version="1.0" encoding="utf-8"?>
<!-- Generator: Adobe Illustrator 24.0.1, SVG Export Plug-In . SVG Version: 6.00 Build 0)  -->
<svg version="1.1" id="Слой_1" xmlns="http://www.w3.org/2000/svg" xmlns:xlink="http://www.w3.org/1999/xlink" x="0px" y="0px"
	 viewBox="0 0 96 120" style="enable-background:new 0 0 96 120;" xml:space="preserve">
<path d="M16.1,5.7c-6.3,0-11.3,5.5-11.3,12.2v60.2c0,0.1,0,0.1,0,0.2c0,0.1,0,0.1,0,0.2h0C5,85.1,10,90.3,16.1,90.3h75.2V16.9H27.4
	C26.9,10.7,22.1,5.7,16.1,5.7z M6.3,17.9c0-5.9,4.4-10.7,9.8-10.7c5.4,0,9.9,4.8,9.9,10.7v54.6c-2-3.7-5.6-6.1-9.9-6.1
	c-4.2,0-7.9,2.5-9.8,6.1C6.3,72.5,6.3,17.9,6.3,17.9z M27.4,18.4h62.3v70.4H16.1c-5.4,0-9.7-4.7-9.8-10.5c0.1-5.8,4.5-10.5,9.8-10.5
	c5.4,0,9.9,4.8,9.9,10.7h1.5L27.4,18.4L27.4,18.4z"/>
<rect x="43.7" y="50.2" width="29.9" height="1.5"/>
<rect x="43.7" y="64.8" width="29.9" height="1.5"/>
<rect x="43.7" y="79.5" width="29.9" height="1.5"/>
<path d="M74.3,28.6H42.9v10.6h31.4V28.6z M72.8,37.7H44.4v-7.6h28.4V37.7z"/>
</svg>
